<?xml version="1.0" encoding="utf-8"?>
<!-- Generator: Adobe Illustrator 25.4.1, SVG Export Plug-In . SVG Version: 6.00 Build 0)  -->
<svg version="1.1" id="Layer_1" xmlns="http://www.w3.org/2000/svg" xmlns:xlink="http://www.w3.org/1999/xlink" x="0px" y="0px"
	 viewBox="0 0 55 52" style="enable-background:new 0 0 55 52;" xml:space="preserve">
<g>
	<path d="M49.9,0H0v52h54.8V0H49.9z M49.9,47H5V10.6h44.9V47z"/>
	<path d="M39.6,23.2c1.1,0,2-0.9,2-2s-0.9-2-2-2s-2,0.9-2,2S38.5,23.2,39.6,23.2z"/>
	<path d="M39.6,31.1c0.3,0,0.5-0.1,0.7-0.2c0.2-0.1,0.4-0.3,0.6-0.4c0.2-0.2,0.3-0.4,0.4-0.7c0.1-0.2,0.1-0.5,0.1-0.8
		c0-0.5-0.2-1-0.5-1.4s-0.8-0.6-1.3-0.6c-0.5,0-1,0.2-1.4,0.6c-0.4,0.4-0.6,0.9-0.6,1.4c0,0.5,0.2,1,0.6,1.4
		C38.6,30.9,39.1,31.1,39.6,31.1z"/>
	<path d="M31.3,23.2c1.1,0,2-0.9,2-2s-0.9-2-2-2s-2,0.9-2,2S30.2,23.2,31.3,23.2z"/>
	<path d="M23.9,23.2c0.5,0,1-0.3,1.4-0.6c0.4-0.4,0.6-0.9,0.6-1.4c0-0.5-0.2-1-0.6-1.4c-0.4-0.4-0.9-0.6-1.4-0.6
		c-0.5,0-1,0.2-1.4,0.6c-0.4,0.4-0.6,0.9-0.6,1.4c0,0.5,0.2,1,0.6,1.4C22.8,23,23.3,23.2,23.9,23.2z"/>
	<path d="M31.3,31.1c0.5,0,1-0.2,1.4-0.6c0.4-0.4,0.6-0.9,0.6-1.4c0-0.5-0.3-1-0.6-1.4c-0.4-0.4-0.8-0.6-1.4-0.6
		c-0.5,0-1,0.2-1.4,0.6c-0.4,0.4-0.6,0.9-0.6,1.4c0,0.5,0.2,1,0.6,1.4C30.3,30.9,30.8,31.1,31.3,31.1z"/>
	<path d="M31.3,38.7c0.5,0,1-0.3,1.4-0.6c0.4-0.4,0.6-0.9,0.6-1.4c0-0.5-0.2-1-0.6-1.4c-0.4-0.4-0.9-0.6-1.4-0.6
		c-0.5,0-1,0.2-1.4,0.6c-0.4,0.4-0.6,0.9-0.6,1.4c0,0.5,0.2,1,0.6,1.4C30.3,38.5,30.8,38.7,31.3,38.7z"/>
	<path d="M23,31.1c0.5,0,1-0.2,1.4-0.6c0.4-0.4,0.6-0.9,0.6-1.4c0-0.5-0.2-1-0.6-1.4c-0.4-0.4-0.9-0.6-1.4-0.6c-0.5,0-1,0.3-1.4,0.6
		c-0.4,0.4-0.6,0.9-0.6,1.4c0,0.5,0.2,1,0.6,1.4C22,30.9,22.5,31.1,23,31.1z"/>
	<path d="M14.7,31.1c0.5,0,1-0.2,1.4-0.6c0.4-0.4,0.6-0.9,0.6-1.4c0-0.5-0.2-1-0.6-1.4c-0.4-0.4-0.9-0.6-1.4-0.6
		c-0.5,0-1,0.3-1.4,0.6c-0.4,0.4-0.6,0.9-0.6,1.4c0,0.5,0.2,1,0.6,1.4C13.7,30.9,14.2,31.1,14.7,31.1z"/>
	<path d="M23,38.7c0.5,0,1-0.2,1.4-0.6c0.4-0.4,0.6-0.9,0.6-1.4c0-0.5-0.2-1-0.6-1.4c-0.4-0.4-0.9-0.6-1.4-0.6c-0.5,0-1,0.2-1.4,0.6
		c-0.4,0.4-0.6,0.9-0.6,1.4c0,0.5,0.3,1,0.6,1.4C22,38.4,22.5,38.7,23,38.7z"/>
	<path d="M14.7,34.7c-0.3,0-0.5,0.1-0.7,0.2c-0.2,0.1-0.4,0.3-0.6,0.4c-0.2,0.2-0.3,0.4-0.4,0.7s-0.1,0.5-0.1,0.8
		c0,0.5,0.2,1,0.5,1.4c0.3,0.4,0.8,0.6,1.3,0.6c0.5,0,1-0.2,1.4-0.6c0.4-0.4,0.6-0.9,0.6-1.4c0-0.5-0.2-1-0.6-1.4
		C15.8,34.9,15.3,34.7,14.7,34.7z"/>
</g>
</svg>
