<?xml version="1.0" encoding="utf-8"?>
<!-- Generator: Adobe Illustrator 25.4.1, SVG Export Plug-In . SVG Version: 6.00 Build 0)  -->
<svg version="1.1" id="Layer_1" xmlns="http://www.w3.org/2000/svg" xmlns:xlink="http://www.w3.org/1999/xlink" x="0px" y="0px"
	 viewBox="0 0 42 53" style="enable-background:new 0 0 42 53;" xml:space="preserve">
<path d="M41.8,16.5c0-2.1-1.1-4.7-2.6-6.2l-7.8-7.8C29.7,1,27.2,0,25,0L6.5,0.2C2.9,0.2,0,3.1,0,6.6l0.3,38.9c0,3.6,2.9,6.5,6.5,6.5
	l28.7-0.2c1.8,0,3.4-0.6,4.5-1.9c1.3-1.3,1.9-2.9,1.9-4.5L41.8,16.5z M35.4,47L6.8,47.2c-0.8,0-1.6-0.6-1.6-1.6L4.9,6.6
	C4.9,5.8,5.5,5,6.5,5l16.7-0.1l0.1,10.4c0,1.8,1.5,3.2,3.2,3.2l10.2-0.1l0.2,27C37,46.2,36.3,47,35.4,47z"/>
</svg>
